<svg xmlns="http://www.w3.org/2000/svg" width="144.083" height="144" enable-background="new 0 0 144.083 144" viewBox="0 0 144.083 144"><path d="M72.04,14.166C40.1,14.166,14.207,40.06,14.207,72c0,31.939,25.893,57.834,57.833,57.834  c31.941,0,57.835-25.895,57.835-57.834C129.875,40.06,103.981,14.166,72.04,14.166z M87.463,106.899  c-3.52,0-6.805-0.986-9.602-2.696c-1.877,0.336-3.807,0.52-5.78,0.52c-18.033,0-32.651-14.617-32.651-32.649  c0-2.475,0.284-4.881,0.805-7.197c-1.616-2.741-2.547-5.934-2.547-9.346c0-10.179,8.251-18.43,18.429-18.43  c3.647,0,7.044,1.064,9.905,2.893c1.964-0.369,3.987-0.57,6.058-0.57c18.032,0,32.649,14.617,32.649,32.65  c0,2.7-0.334,5.321-0.951,7.829c1.348,2.562,2.113,5.474,2.113,8.567C105.893,98.647,97.641,106.899,87.463,106.899z"/><path d="M84.381,71.524c-1.34-0.95-2.967-1.758-4.877-2.424c-1.911-0.666-4.046-1.274-6.403-1.826  c-1.883-0.475-3.233-0.836-4.05-1.083c-0.818-0.247-1.626-0.59-2.424-1.027c-0.799-0.438-1.426-0.96-1.883-1.568  c-0.456-0.608-0.685-1.331-0.685-2.168c0-1.35,0.67-2.505,2.011-3.466c1.34-0.96,3.104-1.439,5.291-1.439  c2.358,0,4.069,0.441,5.134,1.326c1.064,0.884,1.978,2.115,2.738,3.693c0.59,1.103,1.137,1.896,1.641,2.382  c0.504,0.484,1.24,0.727,2.21,0.727c1.065,0,1.954-0.403,2.667-1.212c0.713-0.808,1.068-1.716,1.068-2.724  c0-1.103-0.285-2.234-0.855-3.395c-0.569-1.159-1.473-2.268-2.709-3.322c-1.236-1.056-2.791-1.901-4.663-2.539  c-1.873-0.637-4.093-0.955-6.66-0.955c-3.214,0-6.009,0.48-8.386,1.44c-2.377,0.96-4.193,2.334-5.448,4.121  c-1.255,1.788-1.882,3.832-1.882,6.133c0,2.415,0.594,4.435,1.783,6.061c1.188,1.626,2.795,2.909,4.82,3.851  c2.025,0.941,4.54,1.764,7.544,2.467c2.243,0.514,4.036,0.998,5.376,1.455c1.341,0.456,2.434,1.117,3.28,1.982s1.27,1.992,1.27,3.38  c0,1.749-0.784,3.208-2.353,4.378c-1.569,1.169-3.609,1.754-6.119,1.754c-1.826,0-3.299-0.29-4.421-0.87  c-1.122-0.579-1.992-1.316-2.61-2.21c-0.618-0.894-1.193-2.006-1.726-3.337c-0.438-1.122-0.965-1.969-1.583-2.539  c-0.618-0.57-1.374-0.855-2.268-0.855c-1.103,0-2.011,0.366-2.724,1.098c-0.713,0.732-1.07,1.612-1.07,2.639  c0,1.769,0.594,3.59,1.783,5.462c1.188,1.873,2.733,3.371,4.635,4.492c2.681,1.56,6.084,2.339,10.211,2.339  c3.441,0,6.418-0.57,8.928-1.711c2.51-1.142,4.416-2.719,5.719-4.735c1.301-2.015,1.953-4.287,1.953-6.816  c0-2.11-0.375-3.894-1.127-5.348C86.766,73.678,85.722,72.476,84.381,71.524z"/></svg>